
<svg xmlns="http://www.w3.org/2000/svg" version="1.1" xmlns:xlink="http://www.w3.org/1999/xlink" preserveAspectRatio="none" x="0px" y="0px" width="1000px" height="1000px" viewBox="0 0 1000 1000">
<defs>
<linearGradient id="Gradient_1" gradientUnits="userSpaceOnUse" x1="540.4" y1="-85.4" x2="540.4" y2="33.1" spreadMethod="pad">
<stop  offset="0%" stop-color="#B252E0"/>

<stop  offset="100%" stop-color="#8F4DF0"/>
</linearGradient>

<linearGradient id="Gradient_2" gradientUnits="userSpaceOnUse" x1="-609.05" y1="80.1875" x2="-609.05" y2="46.1125" spreadMethod="pad">
<stop  offset="0%" stop-color="#66FFBF"/>

<stop  offset="100%" stop-color="#8BF5E6"/>
</linearGradient>

<linearGradient id="Gradient_3" gradientUnits="userSpaceOnUse" x1="1.15" y1="144.8375" x2="1.15" y2="59.5625" spreadMethod="pad">
<stop  offset="0%" stop-color="#B252E0"/>

<stop  offset="100%" stop-color="#8F4DF0"/>
</linearGradient>

<linearGradient id="Gradient_4" gradientUnits="userSpaceOnUse" x1="0" y1="-192.775" x2="0" y2="14.375" spreadMethod="pad">
<stop  offset="0%" stop-color="#66FFBF"/>

<stop  offset="100%" stop-color="#59EEBA"/>
</linearGradient>

<g id="Tween_4_0_Layer0_0_FILL">
<path fill="url(#Gradient_1)" stroke="none" d="
M -94.65 33.25
Q 1.25 13.2 93.5 34.45 85.8 -84.65 -1.3 -86.7 -85.8 -84.65 -94.65 33.25 Z"/>

<path fill="url(#Gradient_2)" stroke="none" d="
M -94.65 33.25
Q -74.35 94.7 -0.5 95.05 73.05 95.4 93.5 34.45 1.25 13.2 -94.65 33.25 Z"/>

<path fill="url(#Gradient_3)" stroke="none" d="
M -0.5 95.05
Q -74.35 94.7 -94.65 33.25
L -218.7 33.25
Q -216.35 63.65 -205.1 91.9 -158.45 209.55 1.1 212.9 50.55 211.85 79.85 202.5 173.1 172.55 205.1 91.9 216.1 64.2 218.6 34.45
L 93.5 34.45
Q 73.05 95.4 -0.5 95.05 Z"/>

<path fill="url(#Gradient_4)" stroke="none" d="
M -1.3 -212.85
Q -152.2 -206.4 -204.8 -66.15 -222.4 -13.9 -218.7 33.25
L -94.65 33.25
Q -85.8 -84.65 -1.3 -86.7 85.8 -84.65 93.5 34.45
L 218.6 34.45
Q 222.65 -13.25 204.8 -66.15 155.7 -204.65 -1.3 -212.85 Z"/>
</g>
</defs>

<g transform="matrix( 1.009765625, 0, 0, 1.009765625, 506.4,543.3) ">
<g transform="matrix( 1, 0, 0, 1, 0,0) ">
<use xlink:href="#Tween_4_0_Layer0_0_FILL"/>
</g>
</g>
</svg>
