
<svg xmlns="http://www.w3.org/2000/svg" version="1.1" xmlns:xlink="http://www.w3.org/1999/xlink" preserveAspectRatio="none" x="0px" y="0px" width="1000px" height="1000px" viewBox="0 0 1000 1000">
<defs>
<linearGradient id="Gradient_1" gradientUnits="userSpaceOnUse" x1="174.25" y1="22.950000000000003" x2="174.25" y2="172.35000000000002" spreadMethod="pad">
<stop  offset="0%" stop-color="#B252E0"/>

<stop  offset="100%" stop-color="#8F4DF0"/>
</linearGradient>

<g id="Mask_a_copy_12_1_MASK_0_FILL">
<path fill="#FFFFFF" stroke="none" d="
M -4.55 -4.55
L -4.55 211.5 128.8 211.5 128.8 -4.55 -4.55 -4.55 Z"/>
</g>

<g id="a_copy_12_Layer1_0_FILL">
<path fill="url(#Gradient_1)" stroke="none" d="
M 112.15 22.45
Q 111.2 21.2 109.95 20.2 109.25 19.7 108.5 19.25 107.9 18.9 107.25 18.6 107 18.5 106.75 18.4
L 56.95 0 10.05 17.9
Q 8.463671875 18.4287109375 7.15 19.2 6.93671875 19.9294921875 6.35 20.6
L 6.2 20.5
Q 6.1255859375 20.840234375 6 21.15 5.95 21.15 5.95 21.2 5.4123046875 22.3650390625 5.1 23.75 4.92421875 25.8541015625 5.35 28.55 12.97265625 108.818359375 2.3 180.3 2.50625 183.6484375 3.1 186.8 3.75 190.15 4.85 193
L 6.7 195.8
Q 58.3353515625 208.395703125 110.65 195.75 111.8619140625 191.0083984375 111.95 185.15 112.04375 179.6150390625 111.75 174.3 104.0173828125 108.382421875 114.6 37 115 33.85 114.9 31.2 114.85 29.85 114.65 28.6 114.5 27.75 114.3 27 114 25.95 113.6 25.05 113 23.65 112.15 22.45 Z"/>
</g>
</defs>

<g transform="matrix( 0.867523193359375, 0, 0, -0.52972412109375, -332,975.95) ">
<g transform="matrix( 1.00811767578125, 0, 0, 1.00762939453125, 914.8,117.1) ">
<mask id="Mask_Mask_1">
<g transform="matrix( 1, 0, 0, 1, 0,0) ">
<use xlink:href="#Mask_a_copy_12_1_MASK_0_FILL"/>
</g>
</mask>

<g mask="url(#Mask_Mask_1)">
<g transform="matrix( 1, 0, 0, 1, 0,0) ">
<use xlink:href="#a_copy_12_Layer1_0_FILL"/>
</g>
</g>
</g>
</g>
</svg>
