
<svg xmlns="http://www.w3.org/2000/svg" version="1.1" xmlns:xlink="http://www.w3.org/1999/xlink" preserveAspectRatio="none" x="0px" y="0px" width="1000px" height="1000px" viewBox="0 0 1000 1000">
<defs>
<linearGradient id="Gradient_1" gradientUnits="userSpaceOnUse" x1="-38.95" y1="98.9375" x2="-38.95" y2="-17.9375" spreadMethod="pad">
<stop  offset="0%" stop-color="#66FFBF"/>

<stop  offset="100%" stop-color="#8BF5E6"/>
</linearGradient>

<g id="Mask_a_12_1_MASK_0_FILL">
<path fill="#FFFFFF" stroke="none" d="
M 123.6 -4.55
L 0.55 -4.55 0.55 211.5 123.6 211.5 123.6 -4.55 Z"/>
</g>

<g id="a_12_Layer1_0_FILL">
<path fill="url(#Gradient_1)" stroke="none" d="
M 112.15 22.45
Q 111.2 21.2 109.95 20.2 109.25 19.7 108.5 19.25 107.9 18.9 107.25 18.6 107 18.5 106.75 18.4
L 56.95 0 10.05 17.9
Q 8.4 18.45 7.05 19.25 6.3 19.7 5.65 20.2 4.3 21.2 3.35 22.45 2.4 23.65 1.75 25.05 1.3 25.95 0.95 27 0.7 27.75 0.55 28.6 0.25 29.85 0.15 31.2 -0.05 33.1 0.05 35.25
L 23.4 194.1
Q 56.9 209.75 90.75 194.1
L 114.6 37
Q 115 33.85 114.9 31.2 114.85 29.85 114.65 28.6 114.5 27.75 114.3 27 114 25.95 113.6 25.05 113 23.65 112.15 22.45 Z"/>
</g>
</defs>

<g transform="matrix( 1, 0, 0, 1, -464.55,-41.9) ">
<g transform="matrix( 1.00811767578125, 0, 0, 1.00762939453125, 914.8,117.1) ">
<mask id="Mask_Mask_1">
<g transform="matrix( 1, 0, 0, 1, 0,0) ">
<use xlink:href="#Mask_a_12_1_MASK_0_FILL"/>
</g>
</mask>

<g mask="url(#Mask_Mask_1)">
<g transform="matrix( 1, 0, 0, 1, 0,0) ">
<use xlink:href="#a_12_Layer1_0_FILL"/>
</g>
</g>
</g>
</g>
</svg>
